<svg width="72" height="90" viewBox="0 0 72 90" fill="none" xmlns="http://www.w3.org/2000/svg">
<path d="M0.210938 9.75733C0.210938 6.9959 2.44951 4.75732 5.21094 4.75732H66.3339C69.0953 4.75732 71.3339 6.9959 71.3339 9.75732V29.8914H0.210938V9.75733Z" fill="#2D1554"/>
<path d="M71.332 59.8745C71.332 76.4431 57.9006 89.8745 41.332 89.8745L10.209 89.8745C4.6862 89.8745 0.209053 85.3974 0.209054 79.8745L0.209058 29.8912L71.332 29.8912L71.332 59.8745Z" fill="#7F4677"/>
<path d="M54.1085 71.1186C55.405 78.2328 51.3245 86.0119 47.0703 89.3458C60.7705 86.2731 68.1849 78.0476 71.3336 63.4155C67.2589 69.3424 63.064 73.6168 54.1085 71.1186Z" fill="#2D1554"/>
<path d="M13.3789 2.10693C13.3789 1.00236 14.2743 0.106934 15.3789 0.106934H18.7876C19.8921 0.106934 20.7875 1.00236 20.7875 2.10693V4.75723H13.3789V2.10693Z" fill="#2D1554"/>
<path d="M48.3789 2.10693C48.3789 1.00236 49.2743 0.106934 50.3789 0.106934H53.7876C54.8921 0.106934 55.7875 1.00236 55.7875 2.10693V4.75723H48.3789V2.10693Z" fill="#2D1554"/>
</svg>
